<svg width="60" height="60" viewBox="0 0 60 60" fill="none" xmlns="http://www.w3.org/2000/svg">
<path d="M33.172 9.172C33.9221 8.42212 34.9393 8.00085 36 8.00085C37.0607 8.00085 38.0779 8.42212 38.828 9.172L56.828 27.172C57.5779 27.9221 57.9991 28.9393 57.9991 30C57.9991 31.0607 57.5779 32.0779 56.828 32.828L38.828 50.828C38.0736 51.5566 37.0632 51.9598 36.0144 51.9507C34.9656 51.9416 33.9624 51.5209 33.2207 50.7793C32.4791 50.0376 32.0584 49.0344 32.0493 47.9856C32.0402 46.9368 32.4434 45.9264 33.172 45.172L44 34L6 34C4.93913 34 3.92172 33.5786 3.17157 32.8284C2.42143 32.0783 2 31.0609 2 30C2 28.9391 2.42143 27.9217 3.17157 27.1716C3.92172 26.4214 4.93913 26 6 26L44 26L33.172 14.828C32.4221 14.0779 32.0009 13.0607 32.0009 12C32.0009 10.9393 32.4221 9.92211 33.172 9.172Z" fill="#F8F8F8"/>
</svg>
