<svg width="30" height="32" viewBox="0 0 30 32" fill="none" xmlns="http://www.w3.org/2000/svg">
<path d="M29.1201 27.132V31.18H0.0800781V27.132C0.0800781 27.132 0.0800781 19.036 14.6001 19.036C29.1201 19.036 29.1201 27.132 29.1201 27.132ZM21.8601 7.90401C21.8601 6.50293 21.4343 5.13331 20.6365 3.96835C19.8388 2.80339 18.705 1.89542 17.3784 1.35925C16.0518 0.823077 14.592 0.68279 13.1837 0.956128C11.7754 1.22947 10.4818 1.90415 9.46648 2.89487C8.45115 3.88558 7.75971 5.14783 7.47958 6.52199C7.19945 7.89615 7.34322 9.32051 7.89271 10.6149C8.44221 11.9094 9.37274 13.0157 10.5666 13.7941C11.7605 14.5725 13.1642 14.988 14.6001 14.988C16.5256 14.988 18.3722 14.2417 19.7337 12.9132C21.0952 11.5846 21.8601 9.7828 21.8601 7.90401Z" fill="#F8F8F8"/>
</svg>
