<svg width="48" height="30" viewBox="0 0 48 30" fill="none" xmlns="http://www.w3.org/2000/svg">
<path d="M24 1.56C25.8101 1.56 27.546 2.268 28.826 3.52824C30.1059 4.78848 30.825 6.49774 30.825 8.28C30.825 10.0623 30.1059 11.7715 28.826 13.0318C27.546 14.292 25.8101 15 24 15C22.1899 15 20.4539 14.292 19.174 13.0318C17.894 11.7715 17.175 10.0623 17.175 8.28C17.175 6.49774 17.894 4.78848 19.174 3.52824C20.4539 2.268 22.1899 1.56 24 1.56ZM10.35 6.36C11.442 6.36 12.456 6.648 13.3335 7.1664C13.041 9.912 13.86 12.6384 15.537 14.7696C14.562 16.6128 12.612 17.88 10.35 17.88C8.79846 17.88 7.31049 17.2731 6.2134 16.1929C5.11631 15.1127 4.49998 13.6476 4.49998 12.12C4.49998 10.5924 5.11631 9.12727 6.2134 8.04706C7.31049 6.96685 8.79846 6.36 10.35 6.36ZM37.65 6.36C39.2015 6.36 40.6895 6.96685 41.7865 8.04706C42.8836 9.12727 43.5 10.5924 43.5 12.12C43.5 13.6476 42.8836 15.1127 41.7865 16.1929C40.6895 17.2731 39.2015 17.88 37.65 17.88C35.388 17.88 33.438 16.6128 32.463 14.7696C34.1631 12.6085 34.9523 9.8855 34.6665 7.1664C35.544 6.648 36.558 6.36 37.65 6.36ZM11.325 26.04C11.325 22.0656 16.9995 18.84 24 18.84C31.0005 18.84 36.675 22.0656 36.675 26.04V29.4H11.325V26.04ZM0.599976 29.4V26.52C0.599976 23.8512 4.28548 21.6048 9.27748 20.952C8.12698 22.2576 7.42498 24.0624 7.42498 26.04V29.4H0.599976ZM47.4 29.4H40.575V26.04C40.575 24.0624 39.873 22.2576 38.7225 20.952C43.7145 21.6048 47.4 23.8512 47.4 26.52V29.4Z" fill="#F8F8F8"/>
</svg>
