<svg width="30" height="30" viewBox="0 0 30 30" fill="none" xmlns="http://www.w3.org/2000/svg">
<g id="ic:round-upload">
<path id="Vector" d="M12.5 20H17.5C18.1875 20 18.75 19.4375 18.75 18.75V12.5H20.7375C21.85 12.5 22.4125 11.15 21.625 10.3625L15.8875 4.62495C15.7719 4.50907 15.6345 4.41714 15.4833 4.35441C15.3321 4.29169 15.17 4.2594 15.0063 4.2594C14.8425 4.2594 14.6804 4.29169 14.5292 4.35441C14.378 4.41714 14.2406 4.50907 14.125 4.62495L8.3875 10.3625C7.6 11.15 8.15 12.5 9.2625 12.5H11.25V18.75C11.25 19.4375 11.8125 20 12.5 20ZM7.5 22.5H22.5C23.1875 22.5 23.75 23.0625 23.75 23.75C23.75 24.4375 23.1875 25 22.5 25H7.5C6.8125 25 6.25 24.4375 6.25 23.75C6.25 23.0625 6.8125 22.5 7.5 22.5Z" fill="#F8F8F8"/>
</g>
</svg>
